<svg width="22" height="22" viewBox="0 0 22 22" fill="none" xmlns="http://www.w3.org/2000/svg">
<path d="M5.82083 5.82091C7.315 4.32674 9.4325 3.46508 11.7608 3.70341C15.125 4.04257 17.8933 6.77424 18.2692 10.1384C18.7733 14.5842 15.3358 18.3334 11 18.3334C8.07583 18.3334 5.56417 16.6192 4.39083 14.1534C4.0975 13.5392 4.5375 12.8334 5.21583 12.8334C5.555 12.8334 5.87583 13.0167 6.0225 13.3192C7.05833 15.5467 9.5425 16.9584 12.2558 16.3534C14.2908 15.9042 15.9317 14.2451 16.3625 12.2101C17.1325 8.65341 14.4283 5.50007 11 5.50007C9.47833 5.50007 8.12167 6.13258 7.13167 7.13174L8.51583 8.51591C9.09333 9.09341 8.69 10.0834 7.87417 10.0834L4.58333 10.0834C4.07917 10.0834 3.66667 9.67091 3.66667 9.16674L3.66667 5.87591C3.66667 5.06008 4.65667 4.64758 5.23417 5.22508L5.82083 5.82091V5.82091Z" fill="#FB6681"/>
</svg>
